<?xml version="1.0" encoding="UTF-8" standalone="no"?>
<!DOCTYPE svg PUBLIC "-//W3C//DTD SVG 1.1//EN" "http://www.w3.org/Graphics/SVG/1.1/DTD/svg11.dtd">
<svg width="100%" height="100%" viewBox="0 0 415 384" version="1.1" xmlns="http://www.w3.org/2000/svg" xmlns:xlink="http://www.w3.org/1999/xlink" xml:space="preserve" xmlns:serif="http://www.serif.com/" style="fill-rule:evenodd;clip-rule:evenodd;stroke-linejoin:round;stroke-miterlimit:2;">
    <g transform="matrix(1,0,0,1,-1499.13,-1141.43)">
        <g transform="matrix(0.602036,0,0,0.602036,1005.68,530.611)">
            <path d="M897.959,1066.7C937.646,1033.17 988.076,1014.59 1040.42,1014.59C1084.76,1014.59 1127.72,1027.92 1163.95,1052.37C1200.17,1027.92 1243.14,1014.59 1287.48,1014.59C1346.03,1014.59 1402.19,1037.85 1443.59,1079.25C1485,1120.66 1508.26,1176.82 1508.26,1235.37C1508.26,1293.93 1485,1350.09 1443.6,1391.49L1196.54,1638.55C1178.54,1656.55 1149.36,1656.55 1131.36,1638.55L884.302,1391.49C842.897,1350.09 819.636,1293.93 819.636,1235.37C819.636,1189.45 833.944,1145 860.092,1107.98C873.126,1088.93 888.333,1074.71 897.959,1066.7ZM1378.41,1144.44C1354.29,1120.32 1321.58,1106.77 1287.48,1106.77C1253.37,1106.77 1220.66,1120.32 1196.54,1144.44C1178.54,1162.44 1149.36,1162.44 1131.36,1144.44C1107.24,1120.32 1074.53,1106.77 1040.42,1106.77C1020.42,1106.77 1000.91,1111.43 983.319,1120.14L983.328,1120.19C957.366,1133.93 941.29,1151.8 931.523,1166.97C925.759,1176.14 921.185,1186 917.901,1196.3C917.556,1197.55 917.413,1198.24 917.413,1198.24L917.315,1198.19C913.704,1210.14 911.821,1222.66 911.821,1235.37C911.821,1269.48 925.37,1302.19 949.487,1326.31L1163.95,1540.77L1378.41,1326.31C1402.53,1302.19 1416.08,1269.48 1416.08,1235.37C1416.08,1208.18 1407.47,1181.88 1391.76,1160.12L1388.03,1155.4L1381.23,1147.35C1380.3,1146.36 1379.37,1145.39 1378.41,1144.44ZM1380.22,1146.15C1379.6,1145.6 1379,1145.03 1378.41,1144.44C1379.03,1145.06 1379.65,1145.65 1380.28,1146.22L1380.22,1146.15Z" style="fill:rgb(162,6,6);"/>
        </g>
    </g>
</svg>
